<?xml version="1.0" standalone="no"?><!DOCTYPE svg PUBLIC "-//W3C//DTD SVG 1.1//EN" "http://www.w3.org/Graphics/SVG/1.1/DTD/svg11.dtd"><svg t="1557216651340" class="icon" style="" viewBox="0 0 1025 1024" version="1.1" xmlns="http://www.w3.org/2000/svg" p-id="1359" xmlns:xlink="http://www.w3.org/1999/xlink" width="200.1953125" height="200"><defs><style type="text/css"></style></defs><path d="M870.741333 67.6864H168.96c-93.149867 0-168.96 70.144-168.96 163.259733v571.8016c0 93.149867 75.810133 151.893333 168.96 151.893334h701.781333c93.149867 0 154.692267-58.7776 154.692267-151.893334V230.980267c0-93.149867-61.576533-163.293867-154.692267-163.293867z m85.162667 737.962667a82.261333 82.261333 0 0 1-82.3296 82.295466H168.96c-45.499733 0-99.362133-36.829867-99.362133-82.295466V219.613867c0-45.499733 53.896533-82.3296 99.362133-82.3296h704.6144a82.261333 82.261333 0 0 1 82.3296 82.3296v586.0352zM254.976 376.081067c-23.825067 0-49.732267 19.490133-49.732267 43.349333v194.935467c0 23.825067 19.490133 34.816 43.349334 34.816 23.825067 0 59.323733-10.9568 59.323733-34.816v-194.935467c-0.034133-23.8592-29.149867-43.349333-52.9408-43.349333z m516.266667 0c-23.825067 0-53.623467 19.490133-53.623467 43.349333v194.935467c0 23.825067 29.7984 34.816 53.623467 34.816 23.790933 0 49.015467-10.9568 49.015466-34.816v-194.935467c-0.034133-23.8592-25.224533-43.349333-49.015466-43.349333z m-245.009067 0c-23.825067 0-47.581867 19.490133-47.581867 43.349333v194.935467c0 23.825067 24.849067 34.816 48.64 34.816 23.8592 0 52.906667-10.9568 52.906667-34.816v-194.935467c0.034133-23.8592-30.1056-43.349333-53.9648-43.349333z" p-id="1360"></path></svg>